# xmcd
#
# Track frame offsets: 
#        183
#        14508
#        28233
#        43870
#        57733
#        72033
#        85808
#        100045
#        112458
#        121670
#        136508
#        152320
#        171670
#        184208
#        198508
#        213583
#        227020
#        240945
#        252695
#        265870
#
# Disc length: 3726 seconds
#
# Revision: 7
# Processed by: cddbd v1.5.2PL0 Copyright (c) Steve Scherf et al.
# Submitted via: ExactAudioCopyFreeDBPlugin 1.0
#
DISCID=200e8c14
DTITLE=Various Artist - The Ultimate Encyclopedia Of American Blues Classics [CD1)
DYEAR=1997
DGENRE=Blues, Jazz
TTITLE0=Mildred Bailey - Gulf Coast Blues
TTITLE1=Big Bill Broonzy - Big Bill Blues
TTITLE2=Ida Cox - Four Day Creep
TTITLE3=Blind Gary Davis - Lord I Wish I Could See
TTITLE4=Tom Dickson - Death Bell Blues
TTITLE5=Pearl Dickson - Little Rock Blues
TTITLE6=Blind Boy Fuller - Homesick And Lonesome Blues
TTITLE7=Woody Guthrie - John Henry
TTITLE8=W.C. Handy - Mister Crump
TTITLE9=Billie Holiday - Loveless Love
TTITLE10=John Lee Hooker - Black Man Blues
TTITLE11=Lightnin' Hopkins - Guitar Lightnin'
TTITLE12=Mississippi John Hurt - Louis Collins
TTITLE13=Blind Lemon Jefferson - Match Box Blues
TTITLE14=Blind Willie Johnson - Dark Was The Night
TTITLE15=Robert Johnson - I Believe I'll Dust My Broom
TTITLE16=Leadbelly - The Gallis Pole
TTITLE17=Furry Lewis - Billy Lyons And Stackolee
TTITLE18=Sara Martin - Atlanta Blues
TTITLE19=Blind Willie McTell - Scarey Day Blues
EXTD=YEAR: 1997
EXTT0=
EXTT1=
EXTT2=
EXTT3=
EXTT4=
EXTT5=
EXTT6=
EXTT7=
EXTT8=
EXTT9=
EXTT10=
EXTT11=
EXTT12=
EXTT13=
EXTT14=
EXTT15=
EXTT16=
EXTT17=
EXTT18=
EXTT19=
PLAYORDER=
